# xmcd
#
# Track frame offsets:
#	150
#	14420
#	29030
#	45005
#	62157
#	82735
#	99727
#	115065
#	126965
#	143827
#	158707
#	175485
#	193055
#	209795
#	226157
#
# Disc length: 3246 seconds
#
# Revision: 1
# Processed by: cddbd v1.5.1PL2 Copyright (c) Steve Scherf et al.
# Submitted via: audiograbber 1.83.01
#
DISCID=cc0cac0f
DTITLE=Music Maestro - MM6117
DYEAR=1900
DGENRE=Karaoke
TTITLE0=Brooks, Garth - She's Every Woman
TTITLE1=Walker, Clay - Who Needs You Baby
TTITLE2=Parton, Dolly and Vince Gill - I Will Always Love You
TTITLE3=Confederate Railroad - Bill's Laundromat, Bar and Grill
TTITLE4=McEntire, Reba - On My Own
TTITLE5=Claypool, Phillip - Feel Like Makin' Love
TTITLE6=Tippin, Aaron - That's As Close As I'll Get To Loving You
TTITLE7=Kershaw, Sammy - Your Tattoo
TTITLE8=Parnell, Leroy - When A Man Loves A Woman
TTITLE9=Trevino, Rick - Save This One For Me
TTITLE10=Ball, David - Honky Tonk Healin'
TTITLE11=Byrd, Tracy - Love Lessons
TTITLE12=Lonestar - Tequila Talkin'
TTITLE13=Perfect Stranger - You Have The Right To Remain Silent
TTITLE14=Morgan, Lorrie - Back In Your Arms Again
EXTD=As Listed By KJ Pro
EXTT0=
EXTT1=
EXTT2=
EXTT3=
EXTT4=
EXTT5=
EXTT6=
EXTT7=
EXTT8=
EXTT9=
EXTT10=
EXTT11=
EXTT12=
EXTT13=
EXTT14=
PLAYORDER=
